<?xml version="1.0" encoding="UTF-8"?>
<svg width="78px" height="79px" viewBox="0 0 78 79" version="1.1" xmlns="http://www.w3.org/2000/svg" xmlns:xlink="http://www.w3.org/1999/xlink">
    <title>Logo/U boji</title>
    <g id="Symbols" stroke="none" stroke-width="1" fill="none" fill-rule="evenodd">
        <g id="Logo/U-boji">
            <g>
                <polygon id="Fill-1" fill="#B1905D" points="13.7457222 8.50697254 29.8702452 8.50697254 29.8702452 6.41682947 13.7457222 6.41682947"></polygon>
                <polygon id="Fill-2" fill="#B1905D" points="48.5033462 6.4169683 48.5033462 8.50711137 70.2911812 8.50711137 70.2911812 38.5535254 65.8528797 38.5535254 65.8528797 40.641586 70.2911812 40.641586 70.2911812 60.7662415 72.394897 60.7662415 72.394897 6.4169683"></polygon>
                <polygon id="Fill-3" fill="#B1905D" points="15.8377545 16.9634096 29.8704551 16.9634096 29.8704551 14.8739607 13.7326395 14.8739607 13.7326395 29.0919316 15.8377545 29.0919316"></polygon>
                <polygon id="Fill-4" fill="#B1905D" points="48.5033462 16.9634096 61.762982 16.9634096 61.762982 29.0919316 63.8687966 29.0919316 63.8687966 14.8739607 48.5033462 14.8739607"></polygon>
                <polygon id="Fill-5" fill="#B1905D" points="61.7630519 62.5328323 47.7324501 62.5328323 47.7324501 64.6195046 63.8688665 64.6195046 63.8688665 50.4043103 61.7630519 50.4043103"></polygon>
                <polygon id="Fill-6" fill="#B1905D" points="15.8377545 50.4045186 13.7326395 50.4045186 13.7326395 64.6197128 29.1001887 64.6197128 29.1001887 62.5330406 15.8377545 62.5330406"></polygon>
                <polygon id="Fill-7" fill="#B1905D" points="21.8615735 22.9431902 21.8615735 29.0914456 23.9673881 29.0914456 23.9673881 25.0319449 53.6355871 25.0319449 53.6355871 29.0914456 55.7400025 29.0914456 55.7400025 22.9431902 39.8547447 22.9431902 39.8547447 18.0826184 37.7482305 18.0826184 37.7482305 22.9431902"></polygon>
                <polygon id="Fill-8" fill="#B1905D" points="55.7398626 56.5530517 55.7398626 50.4047963 53.6354472 50.4047963 53.6354472 54.4636028 23.9672482 54.4636028 23.9672482 50.4047963 21.8614336 50.4047963 21.8614336 56.5530517 37.747391 56.5530517 37.747391 61.5614815 39.852506 61.5614815 39.852506 56.5530517"></polygon>
                <polygon id="Fill-9" fill="#B1905D" points="7.31130427 40.6414471 12.3582632 40.6414471 12.3582632 38.5533866 7.31130427 38.5533866 7.31130427 20.830556 5.2061893 20.830556 5.2061893 73.0862153 29.1005385 73.0862153 29.1005385 70.9960722 7.31130427 70.9960722"></polygon>
                <polygon id="Fill-10" fill="#B1905D" points="47.7325901 73.0862153 63.6871088 73.0862153 63.6871088 70.995378 47.7325901 70.995378"></polygon>
                <g id="trogir" fill="#1A1919">
                    <polygon id="Fill-11" points="10.1254001 4.6995246 12.516654 4.6995246 12.516654 3.94589432e-14 10.1254001 3.94589432e-14 10.1254001 0.789964402 2.38635666 0.789964402 2.38635666 0.0180483958 -1.29246022e-13 0.0180483958 -1.29246022e-13 4.71965551 2.38635666 4.71965551 2.38635666 3.20011941 4.99518808 3.20011941 4.99518808 14.9683677 7.62360847 14.9683677 7.62360847 3.20011941 10.1254001 3.20011941"></polygon>
                    <path d="M38.4744917,3.20032766 C40.9021251,3.20032766 41.8186092,3.67236263 41.8186092,5.42791621 C41.8186092,7.32508028 40.7237255,7.71936831 39.0124888,7.71936831 L36.4449342,7.71936831 L36.4449342,3.20032766 L38.4744917,3.20032766 Z M38.5507488,0.790172652 L32.4242975,0.790172652 L32.4242975,3.17811425 L33.8172134,3.17811425 L33.8172134,14.9685759 L36.4449342,14.9685759 L36.4449342,10.0489997 L39.349699,10.0489997 L39.3916754,10.0489997 C40.5635157,11.9649063 41.14209,13.1526296 42.0389851,14.9685759 L44.7828406,14.9685759 C44.0293647,13.0110191 43.2304145,11.5928317 42.0963528,9.53600876 C43.8054907,8.7654811 44.5449745,7.22789661 44.5449745,5.33142671 C44.5449745,2.88170406 43.2905806,0.790172652 38.5507488,0.790172652 L38.5507488,0.790172652 Z" id="Fill-12"></path>
                    <path d="M22.8932128,32.7845639 C18.7340541,32.7845639 16.6653186,35.8423787 15.7103562,40.3051916 C16.6653186,45.360825 19.6498386,47.3961287 22.8743234,47.3961287 C26.1785634,47.3961287 29.1630833,45.2442046 30.1187454,40.1857945 C29.1630833,35.7222874 27.0943479,32.7845639 22.8932128,32.7845639 M22.8743234,44.9852795 C20.3249585,44.9852795 18.6158207,43.4060449 18.6158207,40.1073534 C18.6158207,36.9676267 20.1689464,35.1905539 22.9526793,35.1905539 C25.9385985,35.1905539 27.1524152,37.1876783 27.1524152,40.0289123 C27.1524152,43.5629271 25.3012573,44.9852795 22.8743234,44.9852795" id="Fill-14"></path>
                    <path d="M55.2356564,39.0439558 L55.2356564,41.4312033 L58.2817417,41.4312033 L58.2817417,44.7916757 C57.4862894,44.8659518 56.6677502,44.9089903 56.1290535,44.9089903 C53.5013327,44.9089903 51.2143201,43.8219215 51.2143201,40.0741027 C51.2143201,36.3380848 53.5013327,35.1128764 56.531327,35.1128764 C56.9846718,35.1128764 57.6213134,35.1538324 58.316722,35.1947883 L58.316722,36.5747965 L60.7079759,36.5747965 L60.7079759,31.8773544 L58.316722,31.8773544 L58.316722,33.3364977 C57.5639457,32.9456806 56.7062286,32.7429832 55.6141433,32.7429832 C51.2758854,32.7429832 48.4907533,35.6897309 48.4907533,40.3267803 C48.4907533,45.9335839 52.5890462,47.317757 55.9135748,47.317757 C57.9235433,47.317757 59.6354796,46.8033777 60.8856758,46.2702559 L60.8856758,39.0439558 L55.2356564,39.0439558 Z" id="Fill-16"></path>
                    <polygon id="Fill-18" points="37.4973517 78.985264 40.104784 78.985264 40.104784 64.8089433 37.4973517 64.8089433"></polygon>
                    <path d="M71.2145914,67.2197925 C73.640126,67.2197925 74.5524125,67.6876624 74.5524125,69.4501577 C74.5524125,71.3466276 73.4610268,71.7409156 71.7539878,71.7409156 L69.1843343,71.7409156 L69.1843343,67.2197925 L71.2145914,67.2197925 Z M71.2936469,64.8089433 L65.1657964,64.8089433 L65.1657964,67.1954966 L66.5594119,67.1954966 L66.5594119,78.9845699 L69.1843343,78.9845699 L69.1843343,74.0691587 L72.0849015,74.0691587 L72.1317751,74.0691587 C73.300817,75.9802061 73.8821898,77.1714003 74.7755868,78.9845699 L77.5222407,78.9845699 C76.766666,77.0297898 75.9712138,75.6081315 74.8371522,73.5554736 C76.5448908,72.7863342 77.2815761,71.2473614 77.2815761,69.348809 C77.2815761,66.901863 76.0313799,64.8089433 71.2936469,64.8089433 L71.2936469,64.8089433 Z" id="Fill-20"></path>
                </g>
            </g>
        </g>
    </g>
</svg>