
<svg width="273px" height="70px" viewBox="0 0 273 70" version="1.1" xmlns="http://www.w3.org/2000/svg" xmlns:xlink="http://www.w3.org/1999/xlink">
    <g id="Page-1" stroke="none" stroke-width="1" fill="none" fill-rule="evenodd">
        <g id="NEW-Liberato---home-2021" transform="translate(-102.000000, -17.000000)">
            <g id="Menu_light" transform="translate(-29.000000, 0.000000)">
                <g id="logo" transform="translate(131.000000, 17.000000)">
                    <g id="Liberato" transform="translate(0.000000, 14.528302)" fill="#0069B0" fill-rule="nonzero">
                        <path d="M2.6642922,53.379685 C1.75785721,53.379685 1.08996776,53.1680188 0.660603814,52.74468 C0.231239869,52.3213412 0.0165611172,51.6628242 0.0165611172,50.769109 L0.0165611172,5.89542479 C0.0165611172,4.53133323 1.28078044,3.84929768 3.809257,3.84929768 L5.59826449,3.84929768 C6.93406343,3.84929768 7.90011781,4.01392695 8.49645663,4.34319043 C9.09279544,4.67245391 9.39096037,5.18986019 9.39096037,5.89542479 L9.39096037,45.477401 L26.3507514,45.477401 C27.0186509,45.477401 27.4957148,45.7243449 27.7819574,46.2182401 C28.0682,46.7121353 28.2113192,47.4764855 28.2113192,48.5113136 L28.2113192,50.3457724 C28.2113192,51.3806004 28.0682,52.1449506 27.7819574,52.6388458 C27.4957148,53.1327411 27.0186509,53.379685 26.3507514,53.379685 L2.6642922,53.379685 Z M37.5141581,53.5207972 C34.9856816,53.5207972 33.7214623,52.8387616 33.7214623,51.4746701 L33.7214623,18.3838558 C33.7214623,17.0197642 34.9856816,16.3377287 37.5141581,16.3377287 L38.9453641,16.3377287 C41.4738407,16.3377287 42.73806,17.0197642 42.73806,18.3838558 L42.73806,51.4746701 C42.73806,52.8387616 41.4738407,53.5207972 38.9453641,53.5207972 L37.5141581,53.5207972 Z M71.5053005,53.8735777 C69.4061879,53.8735777 67.4860057,53.4032084 65.7446964,52.4624556 C64.003387,51.5217028 62.5364156,50.2281871 61.3437379,48.5818697 C61.1052024,49.851886 60.8189641,51.0042909 60.4850143,52.0391189 C60.2941859,52.6035706 59.9244614,52.9916253 59.3758297,53.2032947 C58.827198,53.4149641 58.0519692,53.5207972 57.0501199,53.5207972 L56.4060772,53.5207972 C54.0684291,53.5207972 52.8996226,52.8387616 52.8996226,51.4746701 L52.8996226,2.22650721 C52.8996226,0.909453294 54.1638419,0.250936211 56.6923184,0.250936211 L58.0519641,0.250936211 C60.5804407,0.250936211 61.84466,0.909453294 61.84466,2.22650721 L61.84466,18.6660802 C64.2777224,16.8786499 67.0685462,15.9849481 70.2172151,15.9849481 C74.8448043,15.9849481 78.4824165,17.6665185 81.1301608,21.0297098 C83.7779051,24.3929011 85.1017574,29.0142799 85.1017574,34.8939849 C85.1017574,38.798109 84.5292807,42.173009 83.3843102,45.0187863 C82.2393397,47.8645635 80.6411757,50.0517809 78.5897701,51.5805042 C76.5383646,53.1092275 74.1768984,53.8735777 71.5053005,53.8735777 Z M69.0722503,46.5357426 C71.3144842,46.5357426 73.008061,45.5362077 74.1530316,43.537108 C75.2980021,41.5380083 75.8704788,38.6099591 75.8704788,34.7528727 C75.8704788,27.0386997 73.3181869,23.1816711 68.2135267,23.1816711 C65.8758785,23.1816711 63.7529442,23.8401881 61.84466,25.1572421 L61.84466,42.0907078 C62.8465092,43.4547994 63.9556828,44.5366489 65.172214,45.3362887 C66.3887451,46.1359286 67.6887442,46.5357426 69.0722503,46.5357426 Z M110.004742,53.8735777 C103.850525,53.8735777 99.2707118,52.2625627 96.2651642,49.0404844 C93.2596165,45.818406 91.7568653,41.1970272 91.7568653,35.1762093 C91.7568653,28.685015 93.2476899,23.8637292 96.229384,20.7122073 C99.2110781,17.5606854 103.421167,15.9849481 108.859777,15.9849481 C114.012144,15.9849481 117.840582,17.6312408 120.345205,20.9238756 C122.849828,24.2165104 124.102121,28.6615007 124.102121,34.2589799 C124.102121,34.7763939 123.672763,35.5172257 122.814035,36.4814973 C121.955307,37.4457689 121.311271,37.9278975 120.881907,37.9278975 L101.131265,37.9278975 C101.3698,41.0323817 102.240442,43.2783953 103.743215,44.6660057 C105.245989,46.0536161 107.428557,46.7474109 110.290983,46.7474109 C112.867167,46.7474109 115.491018,46.0888938 118.162616,44.7718399 C118.92593,44.4425764 119.402993,44.2779471 119.593822,44.2779471 C120.214014,44.2779471 120.917683,44.9011865 121.704851,46.147684 C122.492018,47.3941814 122.885596,48.3466794 122.885596,49.0052063 C122.885596,49.8989215 122.193853,50.7220678 120.810347,51.4746701 C119.426841,52.2272723 117.721337,52.815234 115.693786,53.2385728 C113.666234,53.6619115 111.769905,53.8735777 110.004742,53.8735777 Z M115.157083,31.6484039 C115.157083,28.9672585 114.620386,26.8741149 113.546977,25.3689104 C112.473567,23.8637059 110.887329,23.111115 108.788217,23.111115 C104.351456,23.111115 101.799164,25.9568495 101.131265,31.6484039 L115.157083,31.6484039 Z M135.90957,53.5207972 C133.381094,53.5207972 132.116874,52.8387616 132.116874,51.4746701 L132.116874,28.3322669 C132.116874,25.180745 131.973755,22.8759352 131.687512,21.4177684 C131.40127,19.9596015 131.258151,19.0658998 131.258151,18.7366363 C131.258151,18.0781094 132.045306,17.5724623 133.619641,17.21968 C135.193975,16.8668977 136.601314,16.6905092 137.841698,16.6905092 C138.605012,16.6905092 139.153635,17.0197677 139.487585,17.6782947 C139.821535,18.3368217 140.071993,19.0306164 140.238968,19.7596999 C140.405943,20.4887833 140.513283,20.9944303 140.56099,21.2766562 C142.755516,17.7488332 145.403221,15.9849481 148.504183,15.9849481 C149.983103,15.9849481 151.04457,16.3259659 151.688616,17.0080117 C152.332662,17.6900575 152.65468,18.4779261 152.65468,19.3716413 C152.65468,20.3123941 152.463855,21.417762 152.082198,22.6877783 C151.700541,23.9577946 151.223477,24.5927932 150.650992,24.5927932 C150.412456,24.5927932 149.947319,24.4869601 149.255566,24.2752907 C148.563813,24.0636213 147.860144,23.9577882 147.144537,23.9577882 C145.761031,23.9577882 144.520665,24.4046391 143.423402,25.2983543 C142.326138,26.1920694 141.562836,27.0152158 141.133472,27.767818 L141.133472,51.4746701 C141.133472,52.8387616 139.8454,53.5207972 137.269216,53.5207972 L135.90957,53.5207972 Z M167.467662,53.8735777 C163.841922,53.8735777 161.074952,52.9445983 159.166668,51.0866115 C157.258383,49.2286247 156.304256,46.7003895 156.304256,43.50183 C156.304256,34.8469042 163.531774,30.4959878 177.987026,30.4489501 L177.987026,27.767818 C177.987026,24.6633338 175.864092,23.111115 171.61816,23.111115 C169.852997,23.111115 168.302539,23.3110219 166.96674,23.7108419 C165.630941,24.1106618 164.462135,24.5339942 163.460286,24.9808518 C162.458436,25.4277094 161.88596,25.6511348 161.742838,25.6511348 C161.122646,25.6511348 160.418977,24.9926177 159.63181,23.6755638 C158.844642,22.3585099 158.451065,21.3707343 158.451065,20.7122073 C158.451065,19.9596051 159.059321,19.2187734 160.275852,18.4896899 C161.492383,17.7606065 163.15018,17.1608856 165.249293,16.6905092 C167.348406,16.2201328 169.614459,15.9849481 172.047522,15.9849481 C177.104475,15.9849481 180.861353,17.0080015 183.318269,19.0541388 C185.775185,21.1002761 187.003624,23.910733 187.003624,27.4855936 L187.003624,41.6673712 C187.003624,44.8659307 187.146743,47.2060182 187.432986,48.6877038 C187.719229,50.1693895 187.862348,51.0748505 187.862348,51.404114 C187.862348,52.0626409 187.075192,52.568288 185.500858,52.9210703 C183.926523,53.2738526 182.519185,53.4502411 181.2788,53.4502411 C180.515486,53.4502411 179.966863,53.1092233 179.632913,52.4271775 C179.298964,51.7451317 179.048505,51.0043 178.88153,50.2046601 C178.714555,49.4050203 178.607216,48.8640955 178.559509,48.5818697 C177.55766,49.851886 176.138394,51.0513278 174.301671,52.1802311 C172.464947,53.3091345 170.186967,53.8735777 167.467662,53.8735777 Z M169.900713,46.7474109 C171.570461,46.7474109 173.097066,46.3123192 174.480572,45.4421229 C175.864078,44.5719266 177.032884,43.4547994 177.987026,42.0907078 L177.987026,36.7284437 C174.075044,36.7284437 171.009908,37.1635353 168.791528,38.0337316 C166.573147,38.903928 165.463974,40.4443876 165.463974,42.6551567 C165.463974,43.9251729 165.845625,44.9247078 166.608939,45.6537912 C167.372252,46.3828746 168.469499,46.7474109 169.900713,46.7474109 Z M208.471714,53.8735777 C205.418459,53.8735777 202.973507,53.0033944 201.136783,51.2630018 C199.30006,49.5226091 198.381712,46.7944669 198.381712,43.0784933 L198.381712,23.6050077 L196.449584,23.6050077 C195.781684,23.6050077 195.292694,23.369823 194.982598,22.8994466 C194.672501,22.4290702 194.517456,21.6529608 194.517456,20.5710951 L194.517456,19.5127535 C194.517456,18.4308878 194.672501,17.6547784 194.982598,17.184402 C195.292694,16.7140256 195.781684,16.4788409 196.449584,16.4788409 L198.381712,16.4788409 L199.311996,9.56434237 C199.550531,8.20025081 200.647778,7.51821526 202.603769,7.51821526 L204.321217,7.51821526 C206.372622,7.51821526 207.39831,8.20025081 207.39831,9.56434237 L207.39831,16.4788409 L211.763488,16.4788409 C212.431387,16.4788409 212.920378,16.7140256 213.230474,17.184402 C213.54057,17.6547784 213.695616,18.4308878 213.695616,19.5127535 L213.695616,20.5710951 C213.695616,21.6529608 213.54057,22.4290702 213.230474,22.8994466 C212.920378,23.369823 212.431387,23.6050077 211.763488,23.6050077 L207.39831,23.6050077 L207.39831,42.9373811 C207.39831,44.3485103 207.648768,45.3362859 208.149693,45.9007376 C208.650617,46.4651893 209.401993,46.7474109 210.403842,46.7474109 C210.880913,46.7474109 211.334124,46.700374 211.763488,46.6062987 C212.192852,46.5122234 212.526796,46.4651865 212.765332,46.4651865 C213.337817,46.4651865 213.814881,47.0649074 214.196538,48.2643672 C214.578195,49.463827 214.76902,50.3457695 214.76902,50.9102212 C214.76902,52.8858021 212.669939,53.8735777 208.471714,53.8735777 Z" id="Liberat"></path>
                    </g>
                    <g id="Group-10" transform="translate(220.566038, 17.169811)">
                        <path d="M51.0290102,39.254913 L50.3381796,22.2249195 C49.4843648,20.2524407 47.3433455,19.1708185 45.2412201,19.6449542 L31.4097909,20.0264854 L35.1399059,6.30062546 C35.1362017,3.83548992 33.8008428,2.25750683 31.3394114,2.25750683 L31.3338551,2.25750683 C28.8705717,2.25750683 26.8777198,4.3040694 26.8777198,6.76550076 L21.3807083,24.449283 C21.3807083,25.805015 22.0030115,27.103332 23.0661128,27.9497385 C24.1292141,28.797997 26.662877,29.4832713 27.9815671,29.1758239 L43.1761366,27.9497385 L43.7947356,41.5126142 C44.3725886,43.4795368 46.2246814,44.3481683 47.5229985,44.083319 C48.1008514,43.9666372 48.1138161,44.083319 48.7175984,43.9684893 C50.565987,43.4221219 51.3549785,41.9163704 51.0290102,39.254913" id="Fill-4" fill="#0069B0"></path>
                        <path d="M1.76005006,6.4386778 C-0.879182212,8.52598641 -1.21963956,15.3032782 6.65175493,12.9881622 C10.2781527,11.9213568 16.071499,5.00008588 25.8987035,9.91554023 C27.8545136,10.8934452 33.1774283,2.65163218 33.1774283,2.65163218 C33.1774283,2.65163218 15.9544894,-4.78870888 1.76005006,6.4386778 Z" id="Fill-6" fill="#0069B0"></path>
                        <path d="M40.8371286,34.03576 L36.2406839,34.5408351 C35.6039264,40.6383623 29.3237788,44.7269213 23.8378799,44.7269213 C16.8814192,44.7269213 11.2399445,39.1187842 11.2399445,32.1993654 C11.2399445,28.6896495 13.1907094,24.2173167 16.0477524,22.4287539 C16.6344311,20.2956368 17.6737597,16.3871171 18.4745547,14.2243354 C8.67826787,15.5878574 3.31113511,23.7556743 3.31113511,32.1993654 C3.31113511,43.4749065 12.5049239,52.6149846 23.8378799,52.6149846 C31.4407209,52.6149846 37.7635679,48.5233708 41.3103257,42.4151687 L40.8371286,34.03576 Z" id="Fill-8" fill="#3CBE55"></path>
                    </g>
                    <path d="M270.754717,9.24528302 C270.754717,14.3506975 266.616663,18.490566 261.509434,18.490566 C256.40402,18.490566 252.264151,14.3506975 252.264151,9.24528302 C252.264151,4.13986858 256.40402,0 261.509434,0 C266.616663,0 270.754717,4.13986858 270.754717,9.24528302" id="Fill-1" fill="#0069B0"></path>
                    <g id="oko" transform="translate(30.377358, 9.245283)">
                        <circle id="Oval" stroke="#3CBE55" stroke-width="6" cx="7.70440252" cy="7.70440252" r="4.70440252"></circle>
                        <circle id="Oval" fill="#0069B0" cx="7.9245283" cy="7.9245283" r="3.08176101"></circle>
                        <circle id="Oval" fill="#1E272D" cx="7.9245283" cy="7.9245283" r="1.32075472"></circle>
                        <circle id="Oval" fill="#FFFFFF" cx="9.02515723" cy="6.82389937" r="1"></circle>
                    </g>
                </g>
            </g>
        </g>
    </g>
</svg>
